<svg id="visual" viewBox="0 0 960 300" width="960" height="300" xmlns="http://www.w3.org/2000/svg" xmlns:xlink="http://www.w3.org/1999/xlink" version="1.1"><path d="M0 49L20 60C40 71 80 93 120 101C160 109 200 103 240 99.5C280 96 320 95 360 95.5C400 96 440 98 480 104C520 110 560 120 600 127C640 134 680 138 720 130.5C760 123 800 104 840 91.5C880 79 920 73 940 70L960 67L960 0L940 0C920 0 880 0 840 0C800 0 760 0 720 0C680 0 640 0 600 0C560 0 520 0 480 0C440 0 400 0 360 0C320 0 280 0 240 0C200 0 160 0 120 0C80 0 40 0 20 0L0 0Z" fill="#f77e21"></path><path d="M0 109L20 120C40 131 80 153 120 159.5C160 166 200 157 240 151.5C280 146 320 144 360 148C400 152 440 162 480 169C520 176 560 180 600 185.5C640 191 680 198 720 187C760 176 800 147 840 133C880 119 920 120 940 120.5L960 121L960 65L940 68C920 71 880 77 840 89.5C800 102 760 121 720 128.5C680 136 640 132 600 125C560 118 520 108 480 102C440 96 400 94 360 93.5C320 93 280 94 240 97.5C200 101 160 107 120 99C80 91 40 69 20 58L0 47Z" fill="#f8ac42"></path><path d="M0 187L20 191.5C40 196 80 205 120 207.5C160 210 200 206 240 207C280 208 320 214 360 222.5C400 231 440 242 480 247.5C520 253 560 253 600 249.5C640 246 680 239 720 230C760 221 800 210 840 203.5C880 197 920 195 940 194L960 193L960 119L940 118.5C920 118 880 117 840 131C800 145 760 174 720 185C680 196 640 189 600 183.5C560 178 520 174 480 167C440 160 400 150 360 146C320 142 280 144 240 149.5C200 155 160 164 120 157.5C80 151 40 129 20 118L0 107Z" fill="#f9d571"></path><path d="M0 301L20 301C40 301 80 301 120 301C160 301 200 301 240 301C280 301 320 301 360 301C400 301 440 301 480 301C520 301 560 301 600 301C640 301 680 301 720 301C760 301 800 301 840 301C880 301 920 301 940 301L960 301L960 191L940 192C920 193 880 195 840 201.5C800 208 760 219 720 228C680 237 640 244 600 247.5C560 251 520 251 480 245.5C440 240 400 229 360 220.5C320 212 280 206 240 205C200 204 160 208 120 205.5C80 203 40 194 20 189.5L0 185Z" fill="#fef9a7"></path></svg>